# xmcd CD database file
#
# Track frame offsets:
#	150
#	15232
#	29861
#	42840
#	56927
#	69248
#	81900
#	97510
#	112731
#	131192
#	148882
#
# Disc length: 2117 seconds
#
# Revision: 0
# Processed by: cddbd v1.4PL0 Copyright (c) Steve Scherf et al.
# Submitted via: CDex 1.50
#
DISCID=9008430b
DTITLE=Suzanne and Kelly - Turn On The Radio
DYEAR=2001
DGENRE=Country
TTITLE0=Slow Dancing
TTITLE1=Slick
TTITLE2=God, Won't You Send Me a Postcard
TTITLE3=Turn On The Radio
TTITLE4=High Heel Shoes
TTITLE5=Don't Call Me Mama On The Dance Floor Tonight
TTITLE6=Someday It Will Matter
TTITLE7=The Corners Of Your Life
TTITLE8=Don't Call Me I'll Call You
TTITLE9=No Hard Feelings
TTITLE10=Get Back Bubba
EXTD=YEAR: 2001
EXTT0=
EXTT1=
EXTT2=
EXTT3=
EXTT4=
EXTT5=
EXTT6=
EXTT7=
EXTT8=
EXTT9=
EXTT10=
PLAYORDER=
